/* XPM */
static char *a7a73345fe6d4ccce87495ea399e8b2cl5UjShcYbYHyfMIp[] = {
/* columns rows colors chars-per-pixel */
"64 64 70 1 ",
"  c None",
". c #272323",
"X c #292525",
"o c #2E2A2A",
"O c #322D2D",
"+ c #363131",
"@ c #3B3535",
"# c #3F3939",
"$ c #423B3B",
"% c #573441",
"& c #772E4B",
"* c #464040",
"= c #4B4545",
"- c #4F4848",
"; c #534C4C",
": c #575050",
"> c #5C5454",
", c #5E5A5A",
"< c #645C5C",
"1 c #685F5F",
"2 c #676262",
"3 c #6B6363",
"4 c #6D6969",
"5 c #706767",
"6 c #746C6C",
"7 c #786E6E",
"8 c #767272",
"9 c #7B7373",
"0 c #7F7979",
"q c #AE245D",
"w c #BA2261",
"e c #D41D6A",
"r c #DC1B6C",
"t c #817676",
"y c #847B7B",
"u c #897E7E",
"i c #BB5E82",
"p c #AE6380",
"a c #848181",
"s c #8D8383",
"d c #8B8888",
"f c #918686",
"g c #948A8A",
"h c #988D8D",
"j c #9D9393",
"k c #9F9D9D",
"l c #A19696",
"z c #A59B9B",
"x c #A99E9E",
"c c #BE9DA6",
"v c #A6A3A3",
"b c #ADA2A2",
"n c #B1A6A6",
"m c #B5AAAA",
"M c #BAADAE",
"N c #B5B3B3",
"B c #BEB2B2",
"V c #BBB8B8",
"C c #CA829C",
"Z c #C2B5B5",
"A c #CEB7BB",
"S c #C5B9B9",
"D c #CABDBD",
"F c #CDC0C0",
"G c #CCCBCB",
"H c #D3D2D2",
"J c #E3E2E2",
"K c #EEEDED",
"L c #F3F3F3",
"P c #FDFDFD",
/* pixels */
"                                 ##                             ",
"                                ####                 ###        ",
"                               ######               ####$       ",
"                               #######      #      $#####       ",
"                              ##=xu### #########$  ##$<##       ",
"                              ##9FF7#################gD;##      ",
"                              ##hFFn################-FF<##      ",
"                             ###sFFb##;6,###########>FF;##      ",
"                             ###>Dn-##bFFN7$#########hB###      ",
"                             ####*$##7FFFFFB6#########$###      ",
"                             #######9FFFFFFFFb2###########      ",
"                             #####:lFFFFFFFFFFFl>#########      ",
"                            ###>9zDFFFFFBjzFFFFFFj4*######      ",
"                            ##$SFFFFFFFFD8yMFFFFF9xhblmn$#      ",
"                           ###9FFFFFFFFFFhxxFFFFF8xMFFFF>#      ",
"                           ###xFFFFFj6<,6lFFFFFFFBd4,<8l6#      ",
"                          ####SFFFFs8N<vH9dFFFFFFuav,NG86#      ",
"                         ###$$FFFFF,LN,sPL,FFFFFB2Kk>kPL,#      ",
"                         ####=FFFFD4kJGKJv6FFFFFM4HPGPPG2#      ",
"                        #####=FFFFFd04><40lACiiCMy,VLKv<9#      ",
"                       #######DFFFFmfgggggZprrrecjy2,,3h9$      ",
"                      ########MFFFFFMjgglZF<&wq%hDbhggnD9#      ",
"                     #########jDFFFFFFDFFFF;####7FFFDDFF6@      ",
"                    ##########9FFFFFFDMsDFD=####2FFsjSFF<#      ",
"                   ###########;FFFFDj8umMDF>$#$#9Fjbk7sM;$      ",
"                  #############mFFFsjDb6kFFSlhgbFFS9hDmg$$      ",
"                 ##############yFFFFB0aSFFFFDFFFFFFDh0SM$       ",
"                ###############-FFFFdMFFFFFFFFFFFFFFFxzl$       ",
"               #################hFFFFFFFFFFFFFFFFFFFFFF9#       ",
"              ##################;FFFFFFFFFFFFFFFFFFFFFF>#       ",
"             ####################hFFFFFFFFFFFFFFFFFFFFZ##       ",
"            #####################=SFFFFFFFFFFFFFFFFFFDs##       ",
"           #######################8DFFFFFFFFFFFFFFFFFF>$$       ",
"          #########################xFFFFFFFFFFFFFFFFFb$@        ",
"         ##########################=SFFFFFFFFFFFFFFFD3@$        ",
"        ############################<DFFFFFFFFFFFFFFm$$$        ",
"       ###################$@########$9FFFFFFFFFFFFFF<@$@        ",
"      #####################$##########fFFFFFFFFFFFDj#$$         ",
"      ################################$hFFFFFFFFFFS-###         ",
"     ###################################sFFFFFFFFD3$##@         ",
"     ###$#########$@$###$$@@$############6DDFFFFFy####          ",
"    $###@$##############@$$$##############;jDDFDt#####          ",
"    ####################$@$@################=32-#####$          ",
"    ####################$@$$################$@$######           ",
"   #####################$$@@@$$$#####################           ",
"   #####################@$$$$$@@####################            ",
"   #####################$@$@@$@$####################            ",
"   #####################$@$$@$$$###################             ",
"   #######$$@$$@$@$$@$@$@@$$@$@@$$$@$$$=$@$$@$$$##$             ",
"   #####<*@$$@$$@$$@@$$$$$$@$$$$@@$$@@$6<$@@$$@@#=              ",
"   #####<y$$$@@$@$$@$$@@@$@$$@$@$@$@$$$>6$@$@$$$;s              ",
"    ####$1f<$$$@$$@$$@$$$$@$$@5<$$$@$@$$u$$$@$$$u;              ",
"    ####@$=6fy5<<>><>1yggf5$$$-u$$@$$$@@y;$$$@$t3$#             ",
"    ####$$$$$;<356666ZDFDDDZ6@$7<@@$@$$$15$@$$t6$@$             ",
"     ###$@@$$@$$$$$$5DFFDFFFDt$=u=$$$@$@=u$@$t6$$@$             ",
"     $##$$$@$$$@@$@$nFFFFFFFDS=$<t$@$@$$$y=$t6$6jn$             ",
"      #$@$$@$$@$###;DFFFFFFFFFf$$66$$$$6xx$o;>ZFFF<             ",
"       @$@$@@$@$###<FFFFFFFFFDn$$$y6$7ZDFF3OX$mFFFyO            ",
"        o$$$#$$@##$<FFFFFFFFFFx@$$$71DDFFFh@ +;ZFFg+            ",
"          O$#@$$###$ZDFFFFFFDD<$$@$@$1ZFFFn@  +>mF6O            ",
"            O@$$$###>mFDFDFFm9$$@@O  @-lDFb@   O#=@             ",
"               o+###@$>566<-$+        X$<u>O                    ",
"                    .XoOOO.             oOo                     ",
"                                                                "
};
