/* XPM */
static char * ceil4_xpm[] = {
"64 64 22 1",
" 	c None",
".	c #555551",
"+	c #51514D",
"@	c #494945",
"#	c #555555",
"$	c #55514D",
"%	c #555151",
"&	c #454541",
"*	c #494545",
"=	c #494949",
"-	c #454545",
";	c #41413D",
">	c #4D4949",
",	c #3D3D3D",
"'	c #4D4D49",
")	c #414141",
"!	c #595555",
"~	c #514D4D",
"{	c #4D4D4D",
"]	c #595955",
"^	c #454141",
"/	c #515151",
"......+@..+.#...$..%....%@%.#.#.%......&.++#.....+....#..@%#....",
".....$%*...+......%.#%%..=+...%.....+..*...+.........%..#-...+.+",
"$...%..+@;#......%....+.&@....%+.%.%...>,%...%...$..%.+'@'....%%",
".%%..+...-.%...+.....+..)...+..%.%..+%..*..%..%%...#...&+..%%.%%",
"......%..@......+....++.&...............=............+.*........",
".....%%..@#+...%..#.#..!-...%........+..@#.%..........#@..%#%.%.",
"........#&@=@>=@=>@@==@'-..%..%%....%...'@>@>=='==*>===&%.%..%+.",
".........@.%.....#......@..#%%.......$..=..........#...>+.#.%.%.",
".....%...@.#%.....%..%#.@..+..%.....+.%.=+...+......%..@..+.....",
"....#....@+.......+...%.@%..#+.%.......!@.+....%.+..%+.@.%....%.",
"..%..+.'='........+.....>@++....#%..+..*@....%...+.....~~=+.....",
".+..%.%@.%%.+.......%.+..'$.....%......@.+.%...%.+.%.$+..@.%#...",
"#%...$+@.+............$.%>%...%#.%..$+.@+...........%....@.%....",
"....#..@....%.......+....'++..#%....#.#*...%........+.%.!@+%....",
"{'=''>';.+.+%%...+..+.#.%'>@=>'''>>''>'&+..++.....%.+#.%.&>=>''=",
"..%....@......%.......%%.>..#........#.*.....%........$..@..#...",
"$%.+...@+.%.....%.....+..=+....%.$%...!&+....#........+..@.#....",
"....#%.*.%...+.......%...>%+#....%.#.%.&.+.#.+.$....%....@%.....",
".......''@.$....+.......'-....%...%.%.#*-..%....+.#..%.+'@....$.",
"....%.~.$*..%..%%.$..%.#&%....%.....%#~%-.#....+.+.....-....#..+",
"%+...%...-.....%..+....#&...%..%+%.#....@........+..%..@%.%%...%",
"...#..%..*.!.#+....%.+%#-..%%.........%.@....#+...$%.$%@%..+....",
"..%.%%...)@@@=@@=>@'>>@{&...%.....%.+...@@@@@=*>>@>'>@>&...$.%..",
"%...%....@.#......#.##..@.........%.....@#!.#..#.##%!.#@%.......",
"..%...#.#@%.#......#.++.=.%...%.......#.=.%.......#.%.+>#+.%.%..",
"....%...#*...%.....+..%.@..%.....%......@..#.%....+.%..>%.%.%...",
"..+.#$%+{@.+.#%.%.%#%...=>.......+.....'*$+...%........'+~..%...",
"..!...+@..%..%...+...%...=........!+.+.@#........+.......=......",
".!.+..%@%$#.##..#....%+..*.%...%#.+..%#&%...]..!.....%%.%@......",
".%..+.%@.............%.$+=......%...+..&..%.%..%.......%.@......",
"=@@@==';%..+.+.........#.@'>==@@@@@@=>'&..$...........#..^'@=@=@",
".......@.%...%..%..%.....@.............&....%.....%..%...@...#..",
"......%@..++#.....%......>%............*.+$......+......#@...%.%",
"+....+.@@=#............#')+...%+....+..^&...............=)...%.%",
"...%.%...&.....%.%...%+.&...+#%$.%.%%...@%...%...%..%.+*...+..%%",
"...#.....@.....$+%...%%.)%..%#.....#$...@......+%....+.-+......%",
"...%.....*.+.......%.%+.-..#.%..........@..+.%.......+.@....%.%.",
".....$%##&=@=@>*'===>@='&%..+..%....%+.#@=@@>@@@'>@>@>>)....+.%.",
"........#=##.#...##....#@...%..%........'.#....#%#.#...'+.....+.",
".....+%..@....+..!+..$..@.#.#%.%....+%..>%...+..#...+..@%.....+.",
".#%......@...%....%.....@..%.%.....#..%#@%.......%.....@..+..%#+",
".%...$..=*+....%..+..%%.&>.%.%.%..#.+..';.+....%.+..%..='~%/..+%",
".%$..+.@..........%.%..%.'+%#....+.....@.........+.%..$.!@...%#.",
"#...%.+=.%.%......%...~.%'.....!....%+.@$.+......%...+...@.+...#",
"!+...+.@.$..%...%........=++.+.#.%..%%.@...%.....%..%.%..*+.%..%",
"'~''+'~&...%.....%..%....'''~~+'{''~+'+&............+...#&~'+~{'",
"%.+...%&.+.%+%.+....%...%'++/%.%%.+....-%..++.$.....+#.%.@++%%..",
"...%...@+.............%..@%...%...%....&%............%.%.@....%.",
".$...%.@%........+....$..'++!....+....#&...#...%%.....+.!@+.....",
".......*++...%..+....+..+@.........#..#&/+...+.%+...$%..+-......",
"....+.+.~&#...%%%#$....#@'.%..+....%%.++)......%.%.....>+~.%.%..",
"%+......+*..+...%%+..$.!&......%$..!...+-...%..%.+..+..@.......~",
"......%..-.........+.%..&...%....%.#.%%.@%....%.......%@%..%....",
"....%....&..+.....+....!*..+%.......+...@+$.+.+#.....$.=...'...+",
"%.+......-='>=@>>''>'''>-...%...%.+.....='>='@@>'''''>').%......",
"....%....@....+......%+.@..%..%.#.......@............%+'.....%.#",
"........#@%....%........@.....%.........=.%..+......%.%=...#.%..",
"..+.....#&#+..%%%%..%.%.@..+.....+......@.....+..%...%.=....$..%",
"......%>'%++......+#....+*........#%.%.-'%+...#......%.%~@......",
".#.+..+=.......#.%#%.++..@.%....#....+#-#...#..#....%+%..@......",
"...%...@$$......#....%.%.@........%....&%..#....#.....%.%@......",
"..#....*..%+.%.%%.%.....%=#!!#.#.......-.%+....%%...#....@!#!#!.",
"@*@@@=';$.......#....%...@'@@@@@@@@@@''^....%..#..%......&'*@=@@",
".......-........%..%....%=.............&.................@......"};
