/* XPM */
static char * ceil3_xpm[] = {
"64 64 15 1",
" 	c #7B7B7B",
".	c #6B6B6B",
"+	c #696060",
"@	c #696960",
"#	c #78786F",
"$	c #655C53",
"%	c #786F6F",
"&	c #655353",
"*	c #877E7E",
"=	c #87877E",
"-	c #595950",
";	c #746B62",
">	c #8A8A8A",
",	c #5C5C5C",
"'	c #595050",
" .+ .+. @++++++ # ++$++  %$+%   %.%%++@% #@+%       %+++% @.  . ",
"  $$@++ .++%+.%   #@+$+  ++$&+  *.++++%   %@       %++$@%.+     ",
"#% +$+   #.. .*     #++@ %$+    # #%#++@*  #  #     #++$$++*    ",
"  # %+. %%. .    # # %++  +%      . +$+.@+@      %# @+++$$$%    ",
"#  # #..#.# =        +#   #    # # .@ %   ++%## %+%.++$++++  #  ",
" #  #%  ##%. =       +    #     +  ..% #   @++$+%+@+$++% +##    ",
"   #+ %.#..$+**#    %%      # +@ ..+   ##  #%$+++++$++$+#   #   ",
"   +%   %#.++   .   %%    %   .#  %.     %    #%++$+++@+        ",
"  .%    #%#.@    . #%      # # .  #%            %++$+++%        ",
"  +#  %###% %*      @        % %  @  *    %@##   +$+++++   #   %",
"++%   #.   #.%   . #%+.%+.    #@+++=   #%#+  %   #+$++++-%     @",
"$++.%  #   #.**  =     %  %  #%+.#%@@@.@$$%  ##  .@+.% +++$#  #+",
"+%.++% .    #.#=    # %$%  ++# * #.#   %%+%       +@%#.. %%$@+++",
"    #%#    ## %   %  # .   #%% % %#      +%% #%#    #%     @++$;",
"         # %     #$+  #    #         ##  #    #          %  $$+ ",
"            #%  .          %     # # ##       @  #    #     +$+ ",
"+@%     %    .   %%>          #  ##    #      #   #         %++.",
"##@    ##    ...  %.  >    %+$    %#   #%#            #     +$+@",
"#         @#%      =#- * ++% + %   +@             ##     .   +$$",
"+    #  #@+@@ *%* , . .@++$+%        %.%.%+          ## .    %++",
"+=   # ..,++++..   @*.# % @++  %#  #. %+$++++@%#%       %     @+",
"$@  *# %#+ +@@$$@  +=.    #++.#+  # #%+$ %#@@%%;+@@%          %+",
"%      %#,@$$++ ,.. #     %+# %      .#     # %  #  @%     .  #+",
"       .'@@,@.+%# .  .#     %%                % # %           @+",
" %  # %#.. ...+-=  .%*     * ..%%    %.       .               +@",
"    .  ##,*.  %..   #        %        #.   ..%.      %        $ ",
"       # .@ #,.  .   %       %           %%#                 %@ ",
"       #..,.>= >  ++%.@%     %     #+                #    +% ;##",
"#     #  # .+.+.             #     .+%  % #               #$.%  ",
"  #    #   +   #  $   #     @      @+@     ##%#    #       @%.. ",
"           .  * % %  *   %%#@+     @%#       #         @##% #$ #",
". # #$% ##      *  %     % .$##    %%%%            #  %@@++@$@  ",
".+$+%.   #         #      %++#     @++   ##%          .* @$+++% ",
" -$$%>   #.              %%$$@>     .+.   %         @.+..+$++$$>",
" @+'$@>              %## #$+++$+     #+%# *         +++$$++$+$$=",
" .. ,+@>            #   ++++++%   %      ++.@#% %.  ++++$$$$@++ ",
"#@%#.,$ =           %+. ++$+     @ %#    #+@ =   # +++$+++++$$+$",
"+ *%#..,+  >       %$+++++.+ =  @  % $. # .@@+.  ++$$+++++++++$$",
"+.%   #..,+'.%*    @++$+@; ... # #   @$% . ..+++++@+++$$@@+$+++$",
"+%      ..@,+$+# #%+$+@+@. # %%     # $.#.+ . .%++.%$$@+++-++$++",
"@   *     %...$$+@+$++++@@   #%    *  %@  %..*  ;+  @@...##..++$",
"            .  %$$$+$+$@@%.     *    % +# ##@..% $+ #@+@  % @+++",
"%  %        %%.+@ +$++++$++#   %.  #  %@% #  # %#%@..+++-%%=.@++",
"  #  #%    #  %+       ++@++%.%#    # #%%  %   #  .   .$#-- .+++",
"       . %%  %+#    . .+$% $+ ##    .  #%         # . ,+% ..  +%",
"   #    #  @  #   #   %+$  %@+%      #  ##% #    ..@..,$* % #.$ ",
"           .  %# %%    $+   $$$%     #  % #      .; # ,+ =##.%+ ",
"  #        .%  *@.     @+. %++$##    #  ,=       #@=##.,#  @%@+ ",
"       #      %       #%  %@@+$$%       ..>  %  # -=  #,%>%++++ ",
"=       #    +@%       +# @%+$$$+# >      ,=  #  #.    .+.+$$$+ ",
"            %     %   @+ @+$+++$@.##     .%+   % .-= .  .+++@+$@",
"         .@       .$#%++$$-$@+ @#.*  # = .'@#* %#.,%  .+$. #%@ @",
"         %+% >* %@ +.%$@+#;+$+%$. .> #%. .+++> #%.%. %  . %##  %",
"       # @;@ .=%#$@;@+@%  .+@+$% #. >  %*%+++@> .# . # # # % #  ",
"      %@.%+$  +>  &@++   .%+%.    %...  .%%$$$%=# . #      #  .#",
"#          +%#@+#  %$@   %  #@% ## ...#..+%++$+=%               ",
"           + .+$%   %%   #  +@% #   . # #%.+++@.%   %        #  ",
"          .$.#@%@    +% .%  +      #.@ %.+%$+++.%    . #   # #  ",
"     ##%++$++.++%  @+++%%  %#       %$%.$$+@@++       %   # ##  ",
"*      %+++%.#.= #+++$+%##  #      .$++$++++++   #    #  # %. # ",
"        @ +   % = $++++@  #         ++$+++@@@@.     % # #  ;    ",
"       % #%..@+ %+$++++. # .% ## # @+@@+@+@+%#    %@+    #@  #  ",
"    #  % .+@+@$$$+@++++# #. ## #    .++@++$@      ++$+  #+     %",
"%%    .%%@@@+@+@%@++$+@  %$.%   # # %+@@@++$+@    #@++..+%  @ = "};
