/* XPM */
static char * metal_barrel_xpm[] = {
"64 64 13 1",
" 	c None",
".	c #47704C",
"+	c #AD6331",
"@	c #8C4210",
"#	c #733100",
"$	c #BD7342",
"%	c #9C5221",
"&	c #520000",
"*	c #CE8C52",
"=	c #EF9D63",
"-	c #523100",
";	c #BD9C52",
">	c #FFDEAD",
"                                                                ",
"                                                                ",
"                                                                ",
"                                                                ",
"                                                                ",
"                                                                ",
"                                                                ",
"                                                                ",
"                                                                ",
"                                                                ",
"                                                                ",
"                                                                ",
"                                                                ",
"                                                                ",
"                                                                ",
"                                                                ",
"                                                                ",
"                                                                ",
"                                                                ",
"                                                                ",
"                                                                ",
"                                                                ",
"                    @@%%%%%+++++++++%%%%%@@                     ",
"                 &&#@@@#-&&&&&&&&&&&&&-#@@@#&&                  ",
"                #&&&&##@@@%%%%%%%%%%@@%@##&&&&#                 ",
"                @####@%%++++++++++++@=>=;#####@                 ",
"                ++@@##@@%%%%%%%%%%%%@##-&##@@++                 ",
"                 %$**$+@@@@@@@@@@@@@@@@@+$**$%                  ",
"                 &&#%+**=====*****=====**+%#&&                  ",
"                 &&&###@@@$$*******$$@@@###&&&                  ",
"                 &&#&#####%+$$$*$$$+%#####&#&&                  ",
"                 &&#######%+$$$*$$$+%#######&&                  ",
"                 &&###@@##%+$$$*$$$+%##@@###&&                  ",
"                 &###@@@##%%+$$*$$+%%##@@@###&                  ",
"                #&##@##@##%%+$$*$$+%%##@##@##&#                 ",
"                %%-#@-#%@%%%+$$*$$+%%%@%#-@#-%%                 ",
"                @+$%%@@%%%%%+$$*$$+%%%%%@@%%$+@                 ",
"                 &%$**$$++++$$$*$$$++++$$**$%&                  ",
"                 &&&&#%$$*===========*$$%#&&&&                  ",
"                 &&##@####@@%%+$+%%@@####@##&&                  ",
"                 &&####@##%%++$*$++%%##@####&&                  ",
"                 &&####@@##%++$*$++%##@@####&&                  ",
"                 &&##@##@@%%++$*$++%%@@##@##&&                  ",
"                 &&##@@##-#%++$*$++%#-##@@##&&                  ",
"                 &&-#@@@#%#%++*$*++%#%#@@@#-&&                  ",
"                 &&##@@#%@@%++$+$++%@@%#@@##&&                  ",
"                 &&##@@@%@%%++$$$++%%@%@@@##&&                  ",
"                 &&##@@@@%%%++$*$++%%%@@@@##&&                  ",
"                @%&##@@@%%%%++$*$++%%%%@@@##&%@                 ",
"                 +$+%@@@%%%%++$*$++%%%%@@@%+$+                  ",
"                 &%$**$$+++$$$$*$$$$+++$$**$%&                  ",
"                 &-&&&%$$*===========*$$%&&&-&                  ",
"                 &-&#&#@@%%%%%+$+%%%%%@@&&#&-&                  ",
"                 &&####@@%%+++$*$+++%%@@&&##&&                  ",
"                 &&####@@%%+++$*$+++%%@@&###&&                  ",
"                 &&##@#@@%%+++$*$+++%%@@%###&&                  ",
"                 &&##@@@%%%+++$*$+++%%%@+&##&&                  ",
"                 &&##@@@%%%+++$*$+++%%%@+###&&                  ",
"                @#&##@@@%%%+++$*$+++%%%@@@##&#@                 ",
"                @++@#@@@@%%+++$*$+++%%@@@@#@++@                 ",
"                 %$**$+%%%%%++$*$++%%%%%+$**$%                  ",
"                    $+$****=========****$+$                     ",
"                                                                ",
"                                                                "};
