/* XPM */
static char * wall2h_xpm[] = {
"64 64 47 1",
" 	c None",
".	c #333322",
"+	c #554433",
"@	c #443322",
"#	c #444433",
"$	c #554444",
"%	c #555544",
"&	c #443333",
"*	c #333333",
"=	c #222222",
"-	c #332222",
";	c #222211",
">	c #111111",
",	c #221111",
"'	c #665544",
")	c #665555",
"!	c #776655",
"~	c #776666",
"{	c #998877",
"]	c #666655",
"^	c #777766",
"/	c #888877",
"(	c #887766",
"_	c #777777",
":	c #887777",
"<	c #999988",
"[	c #AA9988",
"}	c #999977",
"|	c #AA9977",
"1	c #998866",
"2	c #888866",
"3	c #998888",
"4	c #666644",
"5	c #775544",
"6	c #444444",
"7	c #777755",
"8	c #997766",
"9	c #332211",
"0	c #555555",
"a	c #BBAA88",
"b	c #BBAA99",
"c	c #666666",
"d	c #775555",
"e	c #664444",
"f	c #555533",
"g	c #444422",
"h	c #776644",
".+@#$%&*=*-=;;>,,,,=;..-=;.--.&&#&&.*&-=.#%%')!%'!~$@-..-;,;@@--",
"{{]!^))'~/!{(/$;&]]/_:{^<</<{)(/(<[^!((}{{^($!!({]'!{<{!!.+]{|[{",
"^'%')']')~(]!^^.~%)]^(/^<]{{!!({}{<(^({}{^({^1}(%)$!!~({'#^('~(2",
"(^()$]])!~/{({(+'~<~$]/)<{/{{(({!/](/({1'!%]2{[/%$'(%(%^!.^!(((^",
"!])$$%!]^^^^<!(#^3{]%%~//^{{^^({{)!!)(!{%!!!2({{~]!!]^(^!@%!!1!^",
"]^_!''^^~])~(^!@!$$~]~]{/^:!'$((^(!(~(]4!5((']!~^](2/^){!@!(!4!!",
"{{/!'^^^:~#!))!.6%]!:{!({{!~|+!{/(!/^(!(!'+$$!+2[(7|[(/(%-&&!(2{",
"([{(/^^^/(~{%+]-&$'^]{6)%))/(%]!^{/((^)/(&$'(''7[{!({{{((@+@)1{(",
"([{{{(/]$($2{'$;'#+$%!%]]!%)+']~({{{^^{^$'++(!(({{{()(({!.'!'8(!",
"(:((::]])')!(!{+^!%+'~:%$#)#$$/{((/[/}<:'+')~)!/{(!'#+%]'9%!!!!!",
"'~+$%*)'#'$]!]{+'!#@$%!'$''#&)!{)<{<({![%+!%%)%^{!)+#$+#+;'$'!%'",
"'(].#.$%%+''}(!.$%'!'!(!''%!''^^1[[{({{)'%!%'^!))%%#+)!^#9'!!'''",
"{{(#-@#)!%']!/!.%&'!^{('%]!]'~{2/{^/<((~7!!'^^''$%!!(^^!#-'!((!^",
"]/'+#&''']]~((';$$%~(]~!(^{^!![/{</{{(~1^{($]!'&'++#%!!++@%~{!(!",
"^(')$6$!))!])!+.-6#$!]/<(~^(~^!^~<^(}<2(!^~!$$#+++%(])$&+&~/{{</",
"'#.-..-...@--.%-.-++&&$*')%##+']%%)]]%++$+++#@@.-..#-&.@#@$%$%%+",
"*%$)%#%%%%$6#'$#&@---..%#&$0)%'$%'#@$%+&@&.9.;;@.@$'+$)%)''%]+@&",
"]%+$6##&&#%]]]%$)^^#-]))(!(^~^[<('!(<{ab{{('&-'4%(!~^)#6%)')]^(:",
"$%&#%##*.&%&&+.$+]$#.%%#)!'!({(!%$]{(({}{[<(%-%!^!$!c^%'#%]%'!]'",
"~%$&&##%%$#@#+#))#%.-$)'$!''!]{((^!(('!!)(((&@'+~]#%$%$+&$%$)^%)",
"6$%+$()c^]%'#%')#!!#@!$'+$+$'(^){/(!('+(!%(!#..%~]#)$$&$%$%&$%$&",
"]**&&&#]%'$$%')%']$#+)'%$')!!)]'~^^]]('!'+!!@--#%]%#'%'%&%']]%$$",
"%%.&*%]]~)]$%]~)!)'+-+$+##!'!)''$(!'#)d(!4e+.-.+%+%@%]^)$%$~%##$",
")]%##$##%!]$'^])!$$&@%'#+'!!^]!^'7(!'++~~!+'.-$#%+++)!%$%0~])]])",
")))+)]#*%%]%]%&')#6#*#%$#^!](%:/)'1')'#^'!'5.-&-#''%+%%%]%$]$$^)",
"])!^%6'%$(%%#]#$*&&=*)%##%!)$0%/)$))$%''^)$'-;-.+#!#$.$#~)0~#%)]",
"]^)'6%)%!])%]'%###.#;#.#*']^)&%!+#&&$%++%!&@#&$#'&%%&#%%!~{^]%''",
"~]!+.%%)']]&$$%##.&$-&$'%#:$$']!]+.'$]/(^)'^@&$$$-&&&++%!)'~~$%'",
"$'%.%)]^!)$%%])%)6&&-&%]##]#%]%#$#%+]~7]~(')#.$'#6#*&.&+']~%##%)",
"%$.&]%)%)%])+$&#&#6&-%%~%)]))!%&+')])^!!'!%)+@#'0%#.*..&&%%']''%",
"#.$&$#%')$)'#&#*&]'#-###..&+!$+#!%&%$'#'''''..;#6$#**.&#+].#$!%#",
"-&=,;;=-;;=-=,;=;;=-.-==-..@--=.@--==*--.;;--.=;-,-,,>>-,;;;,--=",
"]]~)%.']]])%)%))]!)!])]])]%]]'##+%'+$)&!%'%%#]]%%+)!!%!)&>&$')]]",
"$''&#!)#*##'%)]%%^('!!'&]%+]~%^&#%0(!'%%]%%$%']^{(<'&+)!'-6.$#$)",
"!]')~%.*&.*%#'''$&+$%'+$%]%)(^%&**]%')#!'#!&$!!')$)$'$^();=*)]]]",
"')%](!'#&&$@#&#0$$$#&&@$%)(](]!+#-](/!$))'!$#((((%(%^^:(%;#$']]~",
"!'$#$%$$++]]&=&]'#*&$+&'!!!{<!^]%~!/:{']~^)'^^(<~[{({((^%&$'^]!(",
":^#]+%]]{/!)#&$$]@&$+%0]^/({^^(!%$)<!!#')({/((](!2{(%%]^%.(!)^~~",
"!!#&$+6$^!!'#$%]]'!)$#$$$'{<}{%'%]''!:]]3{{(({/(((+#++'(^6]]^^]~",
"$%+#$+#+%%+$&)~'!^^%%]]%%](<3[{+%!(/2{([!/~~{{!!%&'+++^!~.%%(]]%",
"+%]$$#'']]]#$!'%$])~]%]]^]^{[^!%+!~/{((^{<2((^($)!'@&)~^).%%#$$#",
"$%0)#))~]]'%#0:&#]%+)]+])$]({(^##!!((!^~{!!((:{!]!+%+%^:!-&%]6)#",
"]~]^'%(]!]%$~)(^]0]]('%^!%)^~]~+&#!!^)()^^%0!~(^%)(''~(/]-$'6)%%",
"(]])^!](/]'0]#%)%^^!(^'~!]/2'%!'#%!^])$#'%&&']!^$'!!!!!~].$$$%#%",
"])]^]]//:~~^^]')^~(!(](~'%]'!')!''~)!'^%^)#.#''#'+!(!''!'.%%]&#]",
")$]))](/~!{<))!~]%%%)]]^)%2%~!)!!(!!!</(6%'%]]!!'!!2'%$!'&%]))]]",
")!~^%)^]]^{%+$%~^'+#%^&..+###'#-+)''(!((]..##'({]+]'++&+'@.#^)%'",
"%&@$'#*-&...@#++@&&+...&@&#+++@@#@#$##+.&---#'%@#@--;&''!@&@-&##",
"-;;;>>,--#)]%#&*#%$##&&#$####&#%)%%)%%$+$&;;,--9;@&@9.@@@.-=;--;",
"'+@@&=+]^^!%%]]^%%%)%$)60))]]]%$4]0~)!^)!]%#-%((([!%(({{{})'(^~^",
"((:}]-)%)](%]%)^#]^^)$%#$6%'%$%)$6%]^)/$$%'$@!)$'!''$~({^^{<!%''",
")!^]].#+%)^'')%]]]]:000'$$)]]]!]%]##)/!#&)](&(/')((('$!'{2!'!'$%",
")'$~~..&0)%#]0]%$]]]]%$%{~]:^)%^]]%$%]%*]~^^+(!!)^2!(!^!')!!4!''",
"])!:^&#6)/]))]%$%%])^0']]~](]^)!%]+6$%'%!'%$@'({('(!(!!(!()('+'$",
"'/(!^#$6%'(!)#$#%c]~c]%^/(]~~^^)%~''$)#%%%%+-#'!+!!((!](!!(]!'$)",
"!//~~&*$%%]%$))%$%]]%]6]^~~c^)_)])$+%$$]6'%]-f^~(({(1/((!!/)')]]",
"2!!(!#&+)]'c]%)!%^]]]~%$'!~^~]%)]]]%###)]%##.+(([({{{}/('#''()!'",
"!'!~^.&#$]$+#%$%']%))])'')]c'!))$&%$%#0$~)~%-+%(([[[[[<(}!!!(]((",
"'({('-#6$))]$%%%!]~$%)%%%%%]%0!!#'!^]]]]%])].$!<{(^<bb|(2{!']((~",
"!!^2%@##6%'%]0%+'$+!)!##%#*%~~)')#]))%]%6])!#'3[}(|1(/~!{!^##!''",
"!()])-#!~#%])6%#%])]~^~6$*%#*0%$%%%%%~!!%%#].+]({{2{('!{~){!'#!(",
"{()(+.&6%%#%)!]#%)])!])]%#$%6)%#$)#%~)#$'~$$@&+!!!^|{2(((3{{(${{",
"2(^!@-.-&0%'0%$'%$#)%))])c!^]&&&+!)%')'$+##%+%+2{{{{2({((({^]$(^",
"+$%+g;---*%%6%##--*&.@&#&#$##-..$$%.@&&@--#'&!''''!)''!(h+)+##++"};
