/* XPM */
static char * wall1h_xpm[] = {
"64 64 33 1",
" 	c None",
".	c #887777",
"+	c #777777",
"@	c #777766",
"#	c #888888",
"$	c #778888",
"%	c #888877",
"&	c #778877",
"*	c #999988",
"=	c #998877",
"-	c #776666",
";	c #666666",
">	c #554433",
",	c #443333",
"'	c #444433",
")	c #554444",
"!	c #555544",
"~	c #444444",
"{	c #555555",
"]	c #665555",
"^	c #333333",
"/	c #332222",
"(	c #333322",
"_	c #776655",
":	c #775555",
"<	c #665544",
"[	c #664444",
"}	c #443322",
"|	c #666655",
"1	c #553333",
"2	c #998888",
"3	c #889988",
"4	c #889999",
".+@@@@@@@@+.@#$%%#%&%%+@@@@@@@@@@@@@+.%%%%%*=%#@@@@@@@-;.-@..@@@",
">,'))))!~{!''+&;]]]]]]!))))]])')',^/(,~)){{!!;%]''))>',,,(^,,,,,",
">>)!))>))))))@%]_____:]]<]]<<]][<))',,,,(,',,{%)>>>>>)[<>,,,,')'",
"!<!>'''',}(<<|%]]]<]]<)!<]])>)!)>)))>''>,'>>>)#>,,,'>>)!>>>,,>)>",
"))'//,))]])<>!.)!)))!)))!)!]!,,)>>>','>)>,>)>)%',,'>))>''>))))),",
">)),,)<<)<!),{%)'>>))))!)>)<),,)>>',,,,>,,,,,{#~'''>>)))>>)>'>>,",
">)))))))<<]][].)>)!))))!))))>))),''>>))),,,,,|#)>>>>>)[<<)))>>)>",
"<!)))))<))<)[|.))]])))>)!)>)))))))>>>>>>','),;%)}')!)>>>))<][))>",
"<)11>)<<)),/!=.{[[))))))'',,,)>>,),,))>,>}^^)==~},)<)>>)>>))),,1",
"]{{{]]{{{]]];++@||]]||]{]{{]{]{|!{)){|;|-;@@;%+{{{];|]{{]{]]]]]]",
"*####%####2*############22#*2#++*####222###3#####%#############+",
"--|]]];-;-------;---;;-@;-;@+.#$|{;;]]]]|]]||]|-;;-;{{-+;-@+.++#",
")>))))))))>,'))>,'>>>'>)/,''')-%,})<)<))>))))1,,,,>,//,)>''>)~]%",
">>)<<<<<<<<!))))!)>)<<!))))<<';%>)]]]]]])<<<)>>>'>))>)))))))>}!%",
")))!<<<!))<<!)!<)>>)!!)')))]_)-+)<!!))))'>)>>>>>',>))))>>)>)),!%",
")))<]<))<<<))))>>)))))>>>!)!<)-+>])))))))>))>>>,))))>>>,>)',>,{$",
")))<<)])[[)<<))))))))>'')))<])@+!)))))))1),>)'>!<)[)'>)])>>')>~%",
"<<<]<<<<)<)<)>)>))>))>>>,>>)!)@+))))))>>))>>',)))<!)>,)),,>>))!#",
"!')!!!)!!<<<))))))>>>>>>))>>>>-+>)))))>))))!'><)!_]<)'<>>'>,1,)%",
"]>>))<>>)))))))>>>1>>>>>>>'>)].#)>>1,,1>,)))>,)))]))>,'},,,,,'!.",
"-)))){)){!!!!))!)))))))))))!{-.&-|]{{!{]]-;--||;|]]]]]{{{];;-;;#",
"3%##%###%%2%&$+#######%%22#2#2#$3#&#####%*##*###3###2*###3#**###",
"]]]]]|-|;-@-@#+;|]]]]]]]]{{|{]{!]!!]]]]]||]|;+#;{]{]]{]{!!!{{{{]",
">>,'>))})>)>]%-,>',,,,,'>''>,>1>>,,>1,,>,},,,-={,)1>1,)1,11>>>>>",
"!)>)<<),))<>]#|1>>>,,>>))))>))))>))>>)))))>),|*!,))))>)>>)>>)))'",
"]<))!<))>)<>)#;,'',,,'''>)>>))))>>>'>>)>>>'>,]#{>))))))'>)))))))",
">''>))>,>>))~%|,''''>'',''','>>>>>''>))>'>>),]3|>))))>>,>>))))))",
",,>)))>>)))<)#;'>>>))))>)))>>))>>>>'>>>>'>>>,{#;,>>))>)''>>>>>))",
">>>>>>>)>>>)'%;,>>>>))>>>>>''>>>,>>,,,,,>>>,,|#-,>>>>>))>)>'''>)",
",,>>>>))>!)>>2@,)>>)))))>>>>>))>))))>1>>>1,,,;#-1)))>>[[<<))>)))",
"/(,,'',,,)',~+;,',,,,,,,,,,,,',,,'',,,,,',',,|&;,>',,,''>>',,,,,",
"]]]|||||]]]]-#+--|]]{]]]]]]]]]]!]]]]]]]]{]]!!@3+-@-;;|;|;;;||;;|",
"########################%2#**$$2%+@@@@++%%####%%%%%##%%#%##**##%",
"!!!!)))!)))))))))!!))))){{{|@&$-',,1>>>>)))!!))))))!!))){]];|]@%",
",,,',,>))>>>''',,',,>>>>)>,,!+#]>>)))>>>>>>>>,,,,,,,,>))},,>>,;#",
",,'>'>)!))>>>>','>>>))!<<<))>;#|!)))>''')>>)>>'')'>>,)|],},>),;%",
",,'',,'))>>>')),,>)''')]))<]>]%]<<)>>>>),,,,'''',,'','),,},)<'|&",
",,1>1,>))>))))[))>,,)[[<)))<>]%])))>>>>>,,,,,,'>>'>>,,',,('>)(|#",
",,,>>>>)>>>>1>)>[>},[]<)|]))1]%{>))>>>>>>',,,,,,>,,,,,'>,,'''/|#",
"'''>>>>>>>)>,>)>>>>'''>)|]!)1]%)1>>>>))>',,,,,,,,,,,',,,>,',>(;#",
">,,,1>>>><>,,,>'),,>)>>!]]>>,{=!,,,,,,')>',}>,',,,'',},,,',>,,;%",
"{!!!))~)!)~~)),'>>))),1)>)>))|2;,,,,,,,1,,,,,,,>,}}}},,),'}>)!+#",
"######%%#%.%2#++%%%%.++++&&%+#4$%%%%%%%%#%##+&+..+++++++%#.#2#3#",
"--@+.@@.++++.###+@;;;@-;;;--;-;;;;;||;;;;]|-;$#.+@@@@;;;{;;@@;;;",
",,,>>'>)'>),~@%;>,,(,>1},,>>111)>>,,,,>>},}>)@%-,,,,,,}(/}((,,))",
">>>>>>))>>>,,@2!,'',,'>''')!)>>)>))>>>)),',>,]%{'>>''',,>,,,')))",
")>>>>>)))>>)}]=~,,>,,,>>,,>))>))>!<)>>)>'!>)'!2!)))>>>>>,},,'>,,",
")',,,,,>'')|,!*{,,,,,,'>)>>)))<!')<)>'',)]>[))2~>)))''',,,'>,,,'",
"',11>>,>,)%@)!#),>',,,>)),)>>><)>>))',>))!))>^#~>>>>>>''1,,,',,>",
",,>'>>')'>_]>{#],'',,'>)),>'>)<))''>>>>>)<<)))=),>)>,((,'',,,},,",
",},,'))<>>)'1]%]))))))!!)>)>))<)<',)))>>)!)>>]=)>>>>>>>,,,,,},'>",
",,}(,'1,,1',)|&;,,,,,,,,,'>>1>)>,},,,,,,,,,,';%|>>1111,/((}(//,(",
"{{{{]|;;|-;;-+#+-;;;;;;;;-----;;]|;-|;-;;|;;;%#+;@@-;|;;;;;|]]]{",
"#2###%###**#%%############%####33###%#2#*222##%##%%####3##22#**#",
"#@{{)'''))!!!!){{!!{!)!{{]!]{{|+&|{{]]]{)))))){|.|){]]{!{{{]||;;",
"#|(}>>)>>'>>>'},,,,,,},>,)>),,)=%!(,)>,,,11(,})|-),,>,,',,,},(('",
"2|(,,'>>)>>),,>,,''''''')<)>))>@%],'))),,,'>>,,'''>))>''>>'''',,",
"#|^',,,')>>,,,','>>)>>>),[))))>@%]>>'>>,''>>>>>>>>))))>>'>>,,,,,",
"#](,''>)>>>,,>),,>>>>>>))<>'>),]+))),>>>,'','>',>>>))>>>>)>',,,,",
"#|(,>',>>>>'')),''>''''>')>>>>,|&)))}',,'>',,',('>>))>>>',,,,,(/",
"%;,,>>}},,,,',,^,,,,,,,,,,,>)>,!#',,(,,,,>>,,',('>>>>>',)>,,',,(",
"%-,},,((>>,1>,},,,,,,,,,>1,>>>1|2)},,>1>,>>>>>>,>>)>>>11,,,,,},,",
"#%!~'','>)''),,,,,,,,,,,/,)~(,).+!,,,,,^,,''','''~)''',,,'~',,)!",
"+*....+.+%+@+++++++@@@@@+++@+2+$$+@+++%++++++++.+&%.++++++++++%#"};
