/* XPM */
static char * wall2v_xpm[] = {
"64 64 43 1",
" 	c None",
".	c #0C0C00",
"+	c #23170C",
"@	c #170C00",
"#	c #17170C",
"$	c #231717",
"%	c #232317",
"&	c #170C0C",
"*	c #0C0C0C",
"=	c #000000",
"-	c #0C0000",
";	c #2F2317",
">	c #2F2323",
",	c #3B2F23",
"'	c #3B2F2F",
")	c #52463B",
"!	c #2F2F23",
"~	c #3B3B2F",
"{	c #46463B",
"]	c #463B2F",
"^	c #3B3B3B",
"/	c #463B3B",
"(	c #525246",
"_	c #5E5246",
":	c #52523B",
"<	c #5E523B",
"[	c #52462F",
"}	c #46462F",
"|	c #524646",
"1	c #2F2F17",
"2	c #3B2317",
"3	c #171717",
"4	c #3B3B23",
"5	c #523B2F",
"6	c #232323",
"7	c #695E46",
"8	c #695E52",
"9	c #2F2F2F",
"0	c #3B2323",
"a	c #2F1717",
"b	c #23230C",
"c	c #171700",
"d	c #3B2F17",
".+@#$%&*=*-==========..-==.--.&&#&&.*&-=.#%%;>,%;,'$@-..-===@@--",
"))!,~>>;'{,)]{$=&!!{^/)~(({()>]{](_~,]]:))~]$,,])!;,)(),,.+!)<_)",
"~;%;>;!;>']!,~~.'%>!~]{~(!)),,]):)(]~]):)~])~[:]%>$,,']);#~];']}",
"]~]>$!!>,'{)])]+;'('$!{>(){))]]),{!]{])[;,%!})_{%$;]%]%~,.~,]]]~",
",!>$$%,!~~~~(,]#~|)!%%'{{~))~~]))>,,>],)%,,,}]))'!,,!~]~,@%,,[,~",
"!~^,;;~~'!>']~,@,$$'!'!){~/,;$]]~],]']!1,2]];!,'~!]}{~>),@,],1,,",
")){,;~~~/'#,>>,.3%!,/),])),'<+,){],{~],],;+$$,+}_]4<_]{]%-&&,]})",
"]_)]{~~~{]')%+!-&$;~!)3>%>>{]%!,~){]]~>{]&$;];;4_),])))]]@+@>[)]",
"]_)))]{!$]$});$=;#+$%,%!!,%>+;!'])))~~)~$;++],]])))]>]]),.;,;5],",
"]/]]//!!>;>,],)+~,%+;'/%$#>#$${)]]{_{:(/;+;>'>,{)],;#+%!;-%,,,,,",
";'+$%*>;#;$!,!)+;,#@$%,;$;;#&>,)>()(]),_%+,%%>%~),>+#$+#+=;$;,%;",
";]!.#.$%%+;;:],.$%;,;,],;;%,;;~~[__)]))>;%,%;~,>>%%#+>,~#-;,,;;;",
"))]#-@#>,%;!,{,.%&;,~)];%!,!;')}{)~{(]]'4,,;~~;;$%,,]~~,#-;,]],~",
"!{;+#&;;;!!']];=$$%']!',]~)~,,_{)({))]'[~)]$!,;&;++#%,,++@%'),],",
"~];>$3$,>>,!>,+.-3#$,!{(]'~]'~,~'(~]:(}],~',$$#+++%]!>$&+&'{))({",
";#.-..-...@--.%-.-++&&$*;>%##+;!%%>!!%++$+++#@@.-..#-&.@#@$%$%%+",
"*%$>%#%%%%$3#;$#&@---..%#&$6>%;$%;#@$%+&@&.-.==@.@$;+$>%>;;%!+@&",
"!%+$3##&&#%!!!%$>~~#-!>>],]~'~_(];,]()78))];&-;1%],'~>#3%>;>!~]/",
"$%&#%##*.&%&&+.$+!$#.%%#>,;,])],%$!)]]):)_(]%-%,~,$,9~%;#%!%;,!;",
"'%$&&##%%$#@#+#>>#%.-$>;$,;;,!)]]~,]];,,>]]]&@;+'!#%$%$+&$%$>~%>",
"3$%+$]>9~!%;#%;>#,,#@,$;+$+$;]~>){],];+],%],#..%'!#>$$&$%$%&$%$&",
"!**&&&#!%;$$%;>%;!$#+>;%$;>,,>!;'~~!!];,;+,,@--#%!%#;%;%&%;!!%$$",
"%%.&*%!!'>!$%!'>,>;+-+$+##,;,>;;$],;#>0],1a+.-.+%+%@%!~>$%$'%##$",
">!%##$##%,!$;~!>,$$&@%;#+;,,~!,~;4],;++'',+;.-$#%+++>,%$%6'!>!!>",
">>>+>!#*%%!%!%&;>#3#*#%$#~,!]%/{>;[;>;#~;,;2.-&-#;;%+%%%!%$!$$~>",
"!>,~%3;%$]%%#!#$*&&=*>%##%,>$6%{>$>>$%;;~>$;-=-.+#,#$.$#'>6'#%>!",
"!~>;3%>%,!>%!;%###.#=#.#*;!~>&%,+#&&$%++%,&@#&$#;&%%&#%%,')~!%;;",
"'!,+.%%>;!!&$$%##.&$-&$;%#/$$;!,!+.;$!{]~>;~@&$$$-&&&++%,>;''$%;",
"$;%.%>!~,>$%%!>%>3&&-&%!##!#%!%#$#%+!'4!'];>#.$;#3#*&.&+;!'%##%>",
"%$.&!%>%>%!>+$&#&#3&-%%'%>!>>,%&+;>!>~,,;,%>+@#;6%#.*..&&%%;!;;%",
"#.$&$#%;>$>;#&#*&!;#-###..&+,$+#,%&%$;#;;;;;..=#3$#**.&#+!.#$,%#",
"-&=====-===-=======-.-==-..@--=.@--==*--.==--.==-=-====-=====--=",
"!!'>%.;!!!>%>%>>!,>,!>!!>!%!!;##+%;+$>&,%;%%#!!%%+>,,%,>&=&$;>!!",
"$;;&#,>#*##;%>!%%~];,,;&!%+!'%~&#%6],;%%!%%$%;!~)](;&+>,;-3.$#$>",
",!;>'%.*&.*%#;;;$&+$%;+$%!%>]~%&**!%;>#,;#,&$,,;>$>$;$~]>==*>!!!",
";>%!],;#&&$@#&#6$$$#&&@$%>]!]!,+#-!]{,$>>;,$#]]]]%]%~~/]%=#$;!!'",
",;$#$%$$++!!&=&!;#*&$+&;,,,)(,~!%',{/);!'~>;~~]('_)])]]~%&$;~!,]",
"/~#!+%!!){,>#&$$!@&$+%6!~{])~~],%$>(,,#;>]){]]!],})]%%!~%.],>~''",
",,#&$+3$~,,;#$%!!;,>$#$$$;)(:)%;%!;;,/!!|))]]){]]]+#++;]~3!!~~!'",
"$%+#$+#+%%+$&>';,~~%%!!%%!](|_)+%,]{})]_,{'')),,%&;+++~,'.%%]!!%",
"+%!$$#;;!!!#$,;%$!>'!%!!~!~)_~,%+,'{)]]~)(}]]~]$>,;@&>'~>.%%#$$#",
"$%6>#>>'!!;%#6/&#!%+>!+!>$!])]~##,,]],~'),,]]/),!,+%+%~/,-&%!3>#",
"!'!~;%]!,!%$'>]~!6!!];%~,%>~'!'+&#,,~>]>~~%6,']~%>];;']{!-$;3>%%",
"]!!>~,!]{!;6!#%>%~~,]~;',!{};%,;#%,~!>$#;%&&;!,~$;,,,,,'!.$$$%#%",
"!>!~!!{{/''~~!;>~'],]!]';%!;,;>,;;'>,;~%~>#.#;;#;+,],;;,;.%%!&#!",
">$!>>!]{',)(>>,'!%%%>!!~>%}%',>,,],,,({]3%;%!!,,;,,};%$,;&%!>>!!",
">,'~%>~!!~)%+$%'~;+#%~&..+###;#-+>;;],]]!..##;])!+!;++&+;@.#~>%;",
"%&@$;#*-&...@#++@&&+...&@&#+++@@#@#$##+.&---#;%@#@--=&;;,@&@-&##",
"-======--#>!%#&*#%$##&&#$####&#%>%%>%%$+$&===---=@&@-.@@@.-==--=",
";+@@&=+!~~,%%!!~%%%>%$>36>>!!!%$1!6'>,~>,!%#-%]]]_,%]]))):>;]~'~",
"]]/:!->%>!]%!%>~#!~~>$%#$3%;%$%>$3%!~>{$$%;$@,>$;,;;$'])~~)(,%;;",
">,~!!.#+%>~;;>%!!!!/666;$$>!!!,!%!##>{,#&>!]&]{;>]]];$,;)},;,;$%",
">;$''..&6>%#!6!%$!!!!%$%)'!/~>%~!!%$%!%*!'~~+],,>~},],~,;>,,1,;;",
"!>,/~&#3>{!>>!%$%%!>~6;!!'!]!~>,%!+3$%;%,;%$@;])];],],,],]>];+;$",
";{],~#$3%;],>#$#%9!'9!%~{]!''~~>%';;$>#%%%%+-#;,+,,]],!],,]!,;$>",
",{{''&*$%%!%$>>%$%!!%!3!~''9~>^>!>$+%$$!3;%!-b~']])][{]],,{>;>!!",
"},,],#&+>!;9!%>,%~!!!'%$;,'~'!%>!!!%###>!%##.+]]_]))):{];#;;]>,;",
",;,'~.&#$!$+#%$%;!%>>!>;;>!9;,>>$&%$%#6$'>'%-+%]]_____(]:,,,]!]]",
";])];-#3$>>!$%%%,!'$%>%%%%%!%6,,#;,~!!!!%!>!.$,()]~(88<]}),;!]]'",
",,~}%@##3%;%!6%+;$+,>,##%#*%''>;>#!>>%!%3!>,#;|_:]<[]{',),~##,;;",
",]>!>-#,'#%!>3%#%!>!'~'3$*%#*6%$%%%%%',,%%#!.+!]))})];,)'>),;#,]",
")]>]+.&3%%#%>,!#%>!>,!>!%#$%3>%#$>#%'>#$;'$$@&+,,,~<)}]]]|))]$))",
"}]~,@-.-&6%;6%$;%$#>%>>!>9,~!&&&+,>%;>;$+##%+%+}))))}])]]])~!$]~",
"+$%+c=---*%%3%##--*&.@&#&#$##-..$$%.@&&@--#;&,;;;;,>;;,]d+>+##++"};
